<?xml version="1.0" encoding="UTF-8" standalone="no"?>
<!-- Created with Inkscape (http://www.inkscape.org/) -->

<svg
   xmlns:dc="http://purl.org/dc/elements/1.1/"
   xmlns:cc="http://creativecommons.org/ns#"
   xmlns:rdf="http://www.w3.org/1999/02/22-rdf-syntax-ns#"
   xmlns:svg="http://www.w3.org/2000/svg"
   xmlns="http://www.w3.org/2000/svg"
   xmlns:sodipodi="http://sodipodi.sourceforge.net/DTD/sodipodi-0.dtd"
   xmlns:inkscape="http://www.inkscape.org/namespaces/inkscape"
   width="512"
   height="512"
   viewBox="0 0 511.99999 512.00001"
   id="svg2"
   version="1.1"
   inkscape:version="0.91 r13725"
   sodipodi:docname="gangoffork.svg"
   inkscape:export-filename="/Users/brunolima/gangoffork-s.png"
   inkscape:export-xdpi="90"
   inkscape:export-ydpi="90">
  <defs
     id="defs4" />
  <sodipodi:namedview
     id="base"
     pagecolor="#ffffff"
     bordercolor="#666666"
     borderopacity="1.0"
     inkscape:pageopacity="0.0"
     inkscape:pageshadow="2"
     inkscape:zoom="0.7"
     inkscape:cx="304.51662"
     inkscape:cy="191.63738"
     inkscape:document-units="px"
     inkscape:current-layer="svg2"
     showgrid="false"
     units="px"
     inkscape:window-width="1612"
     inkscape:window-height="968"
     inkscape:window-x="1938"
     inkscape:window-y="185"
     inkscape:window-maximized="0" />
  <metadata
     id="metadata7">
    <rdf:RDF>
      <cc:Work
         rdf:about="">
        <dc:format>image/svg+xml</dc:format>
        <dc:type
           rdf:resource="http://purl.org/dc/dcmitype/StillImage" />
        <dc:title />
      </cc:Work>
    </rdf:RDF>
  </metadata>
  <circle
     style="opacity:1;fill:#f2f2f2;fill-opacity:1"
     id="path4286"
     cx="256"
     cy="256"
     r="225.53915" />
  <path
     style="opacity:1;fill:#e6e6e6;fill-opacity:1"
     d="M 195.7168 105.41406 L 196.82617 115.64258 L 188.64648 110.7168 L 175.26172 110.96875 L 170.46289 144.05273 L 219.08008 172.12109 L 221.22266 190.51953 L 228.33789 214.86328 L 142.43164 165.26562 L 146.20117 178.46094 L 125.76367 171.07422 L 118.94531 182.18555 L 120.96484 206.68164 L 235.42969 272.76758 L 220.07227 298.24609 L 219.96094 293.80664 L 166.92773 290.27148 L 130.5625 302.14062 L 115.66211 311.73633 L 109.34961 337.74805 L 110.35938 344.56641 L 168.86914 378.34766 L 172.24219 397.85352 L 306.36328 475.55859 A 225.53915 225.53915 0 0 0 481.53906 256 A 225.53915 225.53915 0 0 0 472.50391 193.21094 L 332.75586 112.52734 L 324.92578 119.28906 L 315.64062 121.75391 L 312.65039 135.78125 L 296.87695 163.81836 L 195.7168 105.41406 z M 239.37109 258.70703 L 241.42578 262.24023 L 240.32227 264.65039 L 240.01172 265.16602 L 239.37109 258.70703 z "
     id="rect4253" />
  <g
     inkscape:groupmode="layer"
     id="layer2"
     inkscape:label="Camada 2" />
  <g
     inkscape:label="Camada 1"
     inkscape:groupmode="layer"
     id="layer1"
     transform="translate(0,-540.36216)"
     sodipodi:insensitive="true">
    <g
       id="g4226"
       transform="matrix(0.60347306,0,0,0.60347306,101.15688,316.13307)">
      <path
         id="rect4198"
         transform="translate(0,540.36216)"
         d="m 139.64258,1.7949219 c -3.13296,0.067263 -6.31489,0.5320906 -9.54297,1.3964843 -10.33019,2.7716002 -18.19524,8.8321828 -23.59766,18.1894528 -5.39993,9.35295 -6.717413,19.194291 -3.94922,29.525391 2.7673,10.3277 8.82829,18.193283 18.18555,23.595703 6.08028,3.51045 12.59938,5.250464 19.5586,5.214844 6.95921,-0.0356 13.38537,-1.779084 19.27929,-5.240235 6.08028,3.51045 11.14807,7.094937 15.19336,10.753907 4.04279,3.66328 7.16043,7.642898 9.35352,11.949219 2.19061,4.310632 3.80669,8.396282 4.84375,12.273432 1.03831,3.87502 1.35375,8.65853 0.95312,14.34961 -0.40187,5.69324 -0.97123,10.86235 -1.70117,15.50782 -0.73425,4.64298 -1.96563,10.75538 -3.69141,18.33398 -3.12447,13.79008 -4.99205,24.71762 -5.5957,32.78906 L 91.75,140.09961 c 0.04923,-6.8327 -1.652807,-13.2737 -5.101562,-19.31836 -3.448754,-6.04466 -8.21464,-10.82157 -14.294922,-14.33203 -9.355107,-5.40117 -19.198401,-6.720626 -29.527344,-3.95117 -10.327699,2.7673 -18.193286,8.82827 -23.595703,18.18554 -5.402417,9.35726 -6.719381,19.19821 -3.951172,29.5293 2.767299,10.3277 8.830439,18.19258 18.185547,23.59375 6.080282,3.51045 12.599387,5.24851 19.558594,5.21289 6.959206,-0.0356 13.388571,-1.78124 19.28125,-5.24023 l 143.511722,82.85742 c 0.01,3.35207 0.47035,6.75737 1.39843,10.21875 0.96466,3.59777 2.33783,6.89045 4.10157,9.89062 l -2.23047,3.86524 c -4.65781,8.06757 -10.45987,12.51206 -17.40625,13.33594 -6.94761,0.82603 -19.25549,-0.74429 -36.92578,-4.71094 -18.69232,-4.08591 -33.29939,-6.20287 -43.81641,-6.34961 -34.767805,-0.27354 -61.959438,16.30434 -81.570312,49.73437 -6.83701,-0.0517 -13.273699,1.65282 -19.31836,5.10157 -6.04466,3.44876 -10.8235319,8.21268 -14.3339842,14.29296 -5.40332712,9.35387 -6.7172275,19.1975 -3.9511719,29.52735 2.7716049,10.33019 8.8321921,18.19524 18.1894531,23.59765 9.352954,5.39995 19.194295,6.71742 29.525391,3.94922 10.327699,-2.7673 18.191333,-8.82633 23.59375,-18.18359 3.510452,-6.08028 5.252417,-12.60135 5.216796,-19.56055 -0.03562,-6.95921 -1.781043,-13.38537 -5.242187,-19.27929 3.510452,-6.08028 7.096889,-11.14612 10.755859,-15.19141 3.663275,-4.04279 7.642896,-7.16238 11.949219,-9.35547 4.310637,-2.19061 8.394327,-3.80669 12.271487,-4.84375 3.87501,-1.03831 8.66048,-1.35375 14.35156,-0.95312 5.69324,0.40187 10.86039,0.97123 15.50586,1.70117 4.64298,0.73425 10.75734,1.96562 18.33594,3.6914 13.79008,3.12447 24.71762,4.99206 32.78906,5.59571 l -50.33594,87.18164 c -6.8327,-0.0492 -13.27174,1.6528 -19.3164,5.10156 -6.04466,3.44875 -10.82353,8.21464 -14.33399,14.29492 -5.401166,9.35511 -6.720617,19.19837 -3.95117,29.52735 2.7673,10.3277 8.82828,18.1933 18.18555,23.5957 9.35726,5.4024 19.1982,6.71947 29.52929,3.95117 10.3277,-2.7673 18.19454,-8.82849 23.59571,-18.18359 3.51045,-6.0803 5.24851,-12.60132 5.21289,-19.56055 -0.0356,-6.95921 -1.78125,-13.38857 -5.24024,-19.28125 L 255.18164,295.875 c 0.0538,-5e-5 0.10635,0.004 0.16016,0.004 6.95706,-0.0369 13.38682,-1.78195 19.27734,-5.24219 l 4.5625,2.63476 c 8.06757,4.65781 12.51206,10.45988 13.33594,17.40625 0.82603,6.94762 -0.7443,19.25354 -4.71094,36.92383 -4.08591,18.69232 -6.20092,33.30135 -6.34766,43.81836 -0.27353,34.76781 16.30436,61.95948 49.73438,81.57031 -0.0517,6.8371 1.65085,13.27181 5.09961,19.31641 3.44875,6.0447 8.21464,10.82544 14.29492,14.33594 9.35387,5.4033 19.19554,6.71717 29.52539,3.95117 10.33018,-2.7716 18.1972,-8.83215 23.59961,-18.18945 5.39994,-9.3529 6.71743,-19.19429 3.94922,-29.52539 -2.7673,-10.32772 -8.82829,-18.19329 -18.18555,-23.59571 -6.08028,-3.51045 -12.59938,-5.25046 -19.55859,-5.21484 -6.9592,0.0356 -13.38538,1.77909 -19.2793,5.24023 -6.08028,-3.51045 -11.14807,-7.09493 -15.19336,-10.7539 -4.0428,-3.66327 -7.16237,-7.64289 -9.35547,-11.94922 -2.1906,-4.31063 -3.80473,-8.39628 -4.84179,-12.27344 -1.0383,-3.87501 -1.35376,-8.65852 -0.95313,-14.34961 0.40188,-5.69324 0.97123,-10.86234 1.70117,-15.50781 0.73425,-4.64298 1.96367,-10.75538 3.68946,-18.33399 3.12447,-13.79007 4.99399,-24.71763 5.59765,-32.78906 l 87.18164,50.33399 c -0.0492,6.83271 1.65282,13.2737 5.10157,19.31836 3.44876,6.04466 8.21463,10.82353 14.29492,14.33398 9.3551,5.40118 19.19645,6.71867 29.52539,3.94922 10.3277,-2.7673 18.19328,-8.82633 23.5957,-18.18359 5.40242,-9.35726 6.72134,-19.1982 3.95313,-29.5293 -2.7673,-10.3277 -8.83044,-18.19452 -18.18555,-23.5957 -6.08028,-3.51045 -12.60134,-5.24851 -19.56055,-5.2129 -6.95921,0.0356 -13.38661,1.78125 -19.27929,5.24024 L 294.39453,257.14648 c 0.0231,-3.46635 -0.4337,-6.99069 -1.39453,-10.57421 -0.96481,-3.59836 -2.33741,-6.89007 -4.10156,-9.89063 l 2.23047,-3.86328 c 4.65781,-8.06757 10.45988,-12.51206 17.40625,-13.33594 6.94762,-0.82603 19.25353,0.7443 36.92382,4.71094 18.69232,4.08591 33.30135,6.20092 43.81836,6.34766 34.76781,0.27353 61.95944,-16.30436 81.57032,-49.73438 6.83701,0.0517 13.27174,-1.65085 19.3164,-5.09961 6.04466,-3.44875 10.82549,-8.21464 14.33594,-14.29492 5.40333,-9.35387 6.71722,-19.19749 3.95117,-29.52734 -2.77161,-10.33018 -8.83219,-18.19525 -18.18945,-23.59766 -9.35295,-5.39994 -19.1943,-6.71743 -29.52539,-3.94922 -10.3277,2.7673 -18.19328,8.82829 -23.59571,18.18555 -3.51044,6.08028 -5.25046,12.59938 -5.21484,19.55859 0.0356,6.9592 1.7791,13.38538 5.24024,19.2793 -3.51045,6.08028 -7.09494,11.14807 -10.75391,15.19336 -3.66327,4.0428 -7.64289,7.16237 -11.94922,9.35547 -4.31063,2.1906 -8.39628,3.80473 -12.27344,4.84179 -3.87501,1.0383 -8.65852,1.35376 -14.34961,0.95313 -5.69324,-0.40188 -10.86234,-0.97123 -15.50781,-1.70117 -4.64298,-0.73425 -10.75539,-1.96562 -18.33398,-3.69141 -13.79009,-3.12447 -24.71764,-4.99204 -32.78907,-5.5957 l 50.33399,-87.181644 c 6.83271,0.0492 13.2737,-1.652812 19.31836,-5.101562 6.04466,-3.44876 10.82158,-8.214632 14.33203,-14.294922 5.40118,-9.3551 6.72062,-19.198404 3.95117,-29.527344 -2.7673,-10.3277 -8.82633,-18.19133 -18.18359,-23.59375 -9.35726,-5.40242 -19.1982,-6.721335 -29.5293,-3.953125 -10.3277,2.7673 -18.19452,8.830437 -23.5957,18.185547 -3.51045,6.08028 -5.24852,12.601337 -5.21289,19.560547 0.0356,6.95921 1.78124,13.386617 5.24023,19.279297 L 254.99219,217.62695 c -3.18657,0.0539 -6.42248,0.51835 -9.70703,1.39844 -0.93867,0.25151 -1.8481,0.53975 -2.7461,0.8457 -0.0585,0.0196 -0.11733,0.0387 -0.17578,0.0586 -0.6565,0.22693 -1.30286,0.4684 -1.9375,0.72461 -0.15377,0.0618 -0.30764,0.1216 -0.46094,0.18554 -0.69211,0.28953 -1.37339,0.59306 -2.03906,0.91797 -0.26741,0.12978 -0.53096,0.27574 -0.79687,0.41211 -0.34052,0.17638 -0.68227,0.35117 -1.01563,0.53711 -0.2043,0.11206 -0.41183,0.21017 -0.61523,0.32617 -0.0174,0.01 -0.0334,0.0213 -0.0508,0.0312 l -4.41602,-2.55078 c -8.06757,-4.65781 -12.51206,-10.45987 -13.33594,-17.40625 -0.82603,-6.94761 0.74624,-19.25354 4.71289,-36.92383 4.08591,-18.69232 6.20092,-33.30134 6.34766,-43.81836 0.27354,-34.767802 -16.30435,-61.959428 -49.73438,-81.570308 0.0517,-6.83701 -1.65281,-13.271746 -5.10156,-19.316406 -3.44876,-6.04466 -8.21269,-10.825488 -14.29297,-14.3359379 -6.43078,-3.7147893 -13.09187,-5.495635 -19.98437,-5.3476562 z m 1.20703,19.5195311 c 3.11364,0.09244 6.1325,0.983619 9.05664,2.671875 4.67863,2.70121 7.71109,6.630415 9.0918,11.796875 1.38319,5.16215 0.7266,10.083089 -1.97461,14.761719 -2.70245,4.68079 -6.63473,7.708607 -11.79688,9.091797 -5.16215,1.3832 -10.08504,0.7266 -14.76367,-1.97461 -4.67863,-2.70121 -7.70645,-6.635438 -9.0918,-11.798828 -1.38534,-5.1634 -0.72784,-10.082892 1.97461,-14.763672 2.70121,-4.67863 6.63257,-7.707893 11.79688,-9.089843 1.93627,-0.519507 3.83885,-0.750778 5.70703,-0.695313 z M 372.18164,35.1875 c 3.11423,0.09264 6.1325,0.983619 9.05664,2.671875 4.67648,2.69997 7.7084,6.633475 9.09375,11.796875 1.38535,5.16339 0.72465,10.085042 -1.97656,14.763672 -2.70121,4.67863 -6.63257,7.7118 -11.79688,9.09375 -5.16554,1.3841 -10.08719,0.723397 -14.76367,-1.976563 -4.67863,-2.70121 -7.7116,-6.633278 -9.0957,-11.798828 -1.38195,-5.1643 -0.72465,-10.085042 1.97656,-14.763672 2.70121,-4.67863 6.63258,-7.709845 11.79688,-9.091797 1.93661,-0.518231 3.84045,-0.750895 5.70898,-0.695312 z M 53.578125,120.61523 c 3.113638,0.0924 6.132496,0.98362 9.056641,2.67188 4.67863,2.70121 7.709846,6.63257 9.091796,11.79687 1.384107,5.16555 0.725356,10.08721 -1.974609,14.76368 -2.701209,4.67863 -6.63328,7.71159 -11.798828,9.0957 -5.164305,1.38195 -10.085041,0.72465 -14.763672,-1.97656 -4.67863,-2.70121 -7.709846,-6.63257 -9.091797,-11.79688 -1.381952,-5.1643 -0.724645,-10.08699 1.976563,-14.76562 2.699966,-4.67648 6.63348,-7.7084 11.796875,-9.09375 1.936273,-0.51951 3.838848,-0.75078 5.707031,-0.69532 z m 417.906255,1.84375 c 3.11319,0.0922 6.1331,0.98285 9.05859,2.67188 4.67863,2.70121 7.70789,6.63257 9.08984,11.79687 1.38535,5.16339 0.7266,10.08505 -1.97461,14.76368 -2.70121,4.67863 -6.63238,7.71109 -11.79882,9.09179 -5.16215,1.3832 -10.08308,0.72856 -14.76172,-1.97265 -4.68078,-2.70245 -7.7086,-6.63668 -9.0918,-11.79883 -1.38319,-5.16215 -0.72659,-10.08504 1.97461,-14.76367 2.70121,-4.67863 6.63543,-7.70645 11.79883,-9.0918 1.93627,-0.51951 3.83715,-0.75258 5.70508,-0.69727 z M 255.88477,237.47461 c 3.00074,0.089 5.91159,0.93271 8.73632,2.50391 4.64397,2.69897 7.65743,6.61943 9.03711,11.76171 1.38411,5.16555 0.7266,10.08505 -1.97461,14.76368 -2.67104,4.62639 -6.55142,7.63611 -11.63086,9.03906 -5.03317,1.25798 -9.83543,0.58119 -14.40429,-2.05664 -4.67647,-2.69997 -7.70645,-6.63543 -9.0918,-11.79883 -1.18971,-4.44007 -0.86182,-8.69565 0.9668,-12.77539 0.25952,-0.55247 0.54035,-1.10264 0.85547,-1.64844 2.70121,-4.67863 6.63327,-7.70964 11.79882,-9.09375 1.93581,-0.51869 3.83882,-0.75071 5.70704,-0.69531 z M 40.060547,351.94922 c 3.113068,0.092 6.130543,0.98166 9.054687,2.66992 4.680783,2.70245 7.710556,6.63473 9.09375,11.79688 1.383195,5.16215 0.724646,10.08504 -1.976562,14.76367 -2.701209,4.67863 -6.63348,7.7084 -11.796875,9.09375 -5.163394,1.38534 -10.082889,0.72587 -14.763672,-1.97656 -4.678631,-2.70122 -7.707893,-6.63257 -9.089844,-11.79688 -1.385347,-5.16339 -0.726599,-10.08504 1.97461,-14.76367 2.701208,-4.67863 6.632371,-7.71109 11.798828,-9.0918 1.935807,-0.5187 3.837237,-0.7505 5.705078,-0.69531 z m 417.908203,2.19922 c 3.11359,0.0923 6.1325,0.98166 9.05664,2.66992 4.67863,2.70121 7.70985,6.63257 9.0918,11.79687 1.38195,5.16431 0.72465,10.087 -1.97657,14.76563 -2.69997,4.67648 -6.63347,7.7084 -11.79687,9.09375 -5.16339,1.38535 -10.08504,0.72465 -14.76367,-1.97656 -4.67863,-2.70121 -7.7118,-6.63257 -9.09375,-11.79688 -1.3841,-5.16554 -0.7234,-10.08719 1.97656,-14.76367 2.70121,-4.67863 6.63328,-7.7116 11.79883,-9.0957 1.93661,-0.51823 3.83887,-0.74873 5.70703,-0.69336 z M 139.36523,439.2207 c 3.11398,0.0926 6.1319,0.98245 9.05469,2.66992 4.67863,2.7012 7.70964,6.63329 9.09375,11.79883 1.38195,5.16431 0.7266,10.08507 -1.97461,14.76367 -2.70121,4.6786 -6.63452,7.71174 -11.79883,9.09376 -5.1643,1.38188 -10.08699,0.72268 -14.76562,-1.97852 -4.67648,-2.6999 -7.70645,-6.63348 -9.0918,-11.79688 -1.38535,-5.16341 -0.72465,-10.08504 1.97657,-14.76367 2.70121,-4.67863 6.63257,-7.70984 11.79687,-9.09179 1.93708,-0.51905 3.8406,-0.7509 5.70898,-0.69532 z m 231.32813,14.23242 c 3.1137,0.0923 6.13445,0.98168 9.05859,2.66993 4.67863,2.70121 7.70645,6.63541 9.0918,11.79883 1.38535,5.1634 0.72784,10.08287 -1.97461,14.76367 -2.70121,4.6786 -6.63257,7.70784 -11.79687,9.08984 -5.16339,1.3853 -10.08505,0.72659 -14.76368,-1.97461 -4.67863,-2.7012 -7.71109,-6.63243 -9.09179,-11.79883 -1.3832,-5.1622 -0.72856,-10.08302 1.97265,-14.76172 2.70245,-4.68075 6.63668,-7.70859 11.79883,-9.09179 1.93581,-0.5187 3.83686,-0.75071 5.70508,-0.69532 z"
         style="opacity:1;fill:#ffffff;fill-opacity:1"
         inkscape:connector-curvature="0" />
      <g
         style="opacity:1"
         id="g4192">
        <path
           id="path3350"
           d="m 380.11422,1050.956 c 10.33018,-2.7716 18.1957,-8.8322 23.59811,-18.1895 5.39994,-9.3529 6.71795,-19.1937 3.94974,-29.5248 -2.7673,-10.32772 -8.82788,-18.19323 -18.18514,-23.59565 -6.08028,-3.51045 -12.59986,-5.25064 -19.55907,-5.21502 -6.9592,0.0356 -13.38606,1.77953 -19.27998,5.24067 -6.08028,-3.51045 -11.14691,-7.09595 -15.1922,-10.75492 -4.0428,-3.66327 -7.16215,-7.64314 -9.35525,-11.94947 -2.1906,-4.31063 -3.80556,-8.39512 -4.84262,-12.27228 -1.0383,-3.87501 -1.35375,-8.65897 -0.95312,-14.35006 0.40188,-5.69324 0.97164,-10.8618 1.70158,-15.50727 0.73425,-4.64298 1.96443,-10.75655 3.69022,-18.33514 3.12447,-13.79009 4.99221,-24.71729 5.59587,-32.78872 l 87.18228,50.33471 c -0.0492,6.83271 1.65268,13.27263 5.10143,19.31729 3.44876,6.04466 8.21435,10.82284 14.29464,14.33329 9.3551,5.40118 19.19804,6.72043 29.52698,3.95098 10.3277,-2.7673 18.19321,-8.82788 23.59563,-18.18514 5.40242,-9.35726 6.72043,-19.19804 3.95222,-29.52914 -2.7673,-10.3277 -8.83003,-18.19445 -18.18514,-23.59563 -6.08028,-3.51045 -12.6011,-5.24849 -19.56031,-5.21286 -6.95921,0.0356 -13.3873,1.78168 -19.27998,5.24067 l -143.84474,-83.0488 c 0.0514,-6.83146 -1.65268,-13.27263 -5.09928,-19.31604 -3.45091,-6.04591 -8.2165,-10.82409 -14.29678,-14.33454 -9.35296,-5.39993 -19.19589,-6.71919 -29.52484,-3.94973 -10.32894,2.76945 -18.19569,8.83218 -23.59687,18.18729 -5.40117,9.35511 -6.71828,19.19929 -3.95098,29.52699 2.7673,10.32769 8.83004,18.19445 18.18299,23.59438 6.08028,3.51045 12.6011,5.24849 19.56246,5.21411 6.95706,-0.0369 13.38731,-1.78168 19.27783,-5.24192 l 4.56236,2.63409 c 8.06757,4.65781 12.51222,10.45928 13.3361,17.40565 0.82603,6.94762 -0.74473,19.25488 -4.71137,36.92517 -4.08591,18.69232 -6.20133,33.30039 -6.34807,43.8174 -0.27353,34.76781 16.30347,61.95931 49.73349,81.57014 -0.0517,6.8371 1.65268,13.2727 5.10144,19.3173 3.44875,6.0447 8.2131,10.825 14.29338,14.3355 9.35387,5.4033 19.19714,6.717 29.52699,3.951 z M 236.4036,802.39022 c -1.3841,-5.16555 -0.72447,-10.08702 1.97549,-14.76349 2.70121,-4.67863 6.63351,-7.71062 11.79906,-9.09473 5.16215,-1.38319 10.08486,-0.72572 14.76349,1.97549 4.67863,2.70121 7.70847,6.63227 9.09257,11.79782 1.38411,5.16555 0.72448,10.08701 -1.97673,14.76564 -2.69996,4.67648 -6.63442,7.70723 -11.79781,9.09257 -5.16555,1.38411 -10.08487,0.72572 -14.7635,-1.97549 -4.67863,-2.7012 -7.71062,-6.63351 -9.09257,-11.79781 z m 202.08325,116.67281 c -1.3841,-5.16554 -0.72447,-10.08701 1.97549,-14.76349 2.70121,-4.67863 6.63351,-7.71062 11.79906,-9.09472 5.1643,-1.38195 10.08486,-0.72572 14.76349,1.97549 4.67863,2.70121 7.71062,6.63351 9.09257,11.79781 1.38195,5.16431 0.72448,10.08702 -1.97673,14.76565 -2.69997,4.67648 -6.63442,7.70722 -11.79782,9.09257 -5.16339,1.38535 -10.08486,0.72572 -14.76349,-1.97549 -4.67863,-2.70121 -7.71062,-6.63351 -9.09257,-11.79782 z m -87.27098,99.30157 c -1.3832,-5.1622 -0.72697,-10.0827 1.97424,-14.7614 2.70245,-4.68075 6.63567,-7.70934 11.79782,-9.09254 5.16215,-1.38319 10.08486,-0.72571 14.76349,1.97549 4.67863,2.70121 7.70722,6.63445 9.09257,11.79785 1.38535,5.1634 0.72696,10.0827 -1.97549,14.7635 -2.70121,4.6786 -6.63227,7.7084 -11.79657,9.0904 -5.16339,1.3853 -10.08486,0.7257 -14.76349,-1.9755 -4.67863,-2.7012 -7.71187,-6.6314 -9.09257,-11.7978 z"
           inkscape:connector-curvature="0"
           style="opacity:0.5;fill:#ffcc00" />
        <path
           id="path3342"
           d="m 1.763321,921.90489 c 2.7716049,10.33019 8.832187,18.1957 18.189448,23.59812 9.352954,5.39993 19.193736,6.71794 29.524832,3.94974 10.327699,-2.7673 18.193212,-8.82789 23.595629,-18.18515 3.510452,-6.08028 5.250642,-12.59986 5.215021,-19.55906 -0.03562,-6.95921 -1.779531,-13.38606 -5.240675,-19.27998 3.510452,-6.08028 7.095951,-11.14692 10.754921,-15.19221 3.663275,-4.04279 7.643147,-7.16215 11.94947,-9.35524 4.310633,-2.19061 8.395123,-3.80556 12.272283,-4.84262 3.87501,-1.03831 8.65897,-1.35375 14.35005,-0.95312 5.69324,0.40187 10.86181,0.97163 15.50728,1.70157 4.64298,0.73425 10.75654,1.96444 18.33514,3.69022 13.79008,3.12447 24.71728,4.99222 32.78872,5.59587 l -50.33472,87.18229 c -6.8327,-0.0492 -13.27263,1.65267 -19.31729,5.10143 -6.04466,3.44875 -10.82283,8.21435 -14.33329,14.29463 -5.401168,9.35511 -6.720425,19.19804 -3.95098,29.52702 2.7673,10.3277 8.82788,18.1932 18.18515,23.5956 9.35726,5.4024 19.19804,6.7205 29.52913,3.9522 10.3277,-2.7673 18.19446,-8.83 23.59563,-18.1851 3.51045,-6.0803 5.24849,-12.6011 5.21287,-19.56033 -0.0356,-6.95921 -1.78168,-13.38731 -5.24067,-19.27999 l 83.04879,-143.84474 c 6.83146,0.0514 13.27263,-1.65267 19.31605,-5.09928 6.0459,-3.4509 10.82408,-8.2165 14.33453,-14.29678 5.39994,-9.35295 6.71919,-19.19589 3.94974,-29.52483 -2.76945,-10.32894 -8.83219,-18.1957 -18.18729,-23.59687 -9.35511,-5.40118 -19.19929,-6.71828 -29.52699,-3.95098 -10.3277,2.7673 -18.19445,8.83003 -23.59438,18.18298 -3.51046,6.08029 -5.24849,12.60111 -5.21412,19.56247 0.0369,6.95705 1.78169,13.3873 5.24192,19.27782 l -2.63408,4.56237 c -4.65781,8.06757 -10.45928,12.51222 -17.40566,13.3361 -6.94761,0.82603 -19.25487,-0.74473 -36.92516,-4.71138 -18.69232,-4.08591 -33.30039,-6.20132 -43.81741,-6.34806 -34.767805,-0.27354 -61.959301,16.30346 -81.570176,49.73349 -6.83701,-0.0517 -13.272629,1.65268 -19.31729,5.10143 -6.04466,3.44876 -10.8249914,8.21311 -14.3354437,14.29339 -5.40332702,9.35386 -6.7170349,19.19713 -3.9509793,29.52698 z M 250.32906,778.19428 c 5.16554,-1.38411 10.08701,-0.72448 14.76349,1.97549 4.67863,2.70121 7.71062,6.63351 9.09472,11.79906 1.3832,5.16215 0.72572,10.08486 -1.97549,14.76349 -2.7012,4.67863 -6.63226,7.70846 -11.79781,9.09257 -5.16555,1.3841 -10.08702,0.72447 -14.76565,-1.97673 -4.67647,-2.69997 -7.70722,-6.63442 -9.09257,-11.79782 -1.3841,-5.16555 -0.72572,-10.08486 1.97549,-14.76349 2.70121,-4.67863 6.63351,-7.71062 11.79782,-9.09257 z M 133.65624,980.27753 c 5.16555,-1.38411 10.08702,-0.72448 14.76349,1.97549 4.67863,2.7012 7.71062,6.63351 9.09473,11.79905 1.38195,5.16431 0.72572,10.08493 -1.97549,14.76353 -2.70121,4.6786 -6.63351,7.7106 -11.79782,9.0926 -5.1643,1.3819 -10.08701,0.7244 -14.76564,-1.9768 -4.67648,-2.6999 -7.70722,-6.6344 -9.09257,-11.7978 -1.38535,-5.16341 -0.72572,-10.08487 1.97549,-14.7635 2.70121,-4.67863 6.63351,-7.71062 11.79781,-9.09257 z M 34.354705,893.00654 c 5.162152,-1.38319 10.082709,-0.72696 14.76134,1.97425 4.680783,2.70245 7.709376,6.63566 9.09257,11.79781 1.383195,5.16215 0.725719,10.08486 -1.975489,14.76349 -2.701209,4.67863 -6.63442,7.70723 -11.797815,9.09258 -5.163394,1.38534 -10.082709,0.72696 -14.763492,-1.97549 -4.678631,-2.70121 -7.708467,-6.63227 -9.090418,-11.79658 -1.385347,-5.16339 -0.725719,-10.08486 1.97549,-14.76349 2.701208,-4.67863 6.631357,-7.71186 11.797814,-9.09257 z"
           inkscape:connector-curvature="0"
           style="opacity:0.5;fill:#37c837" />
        <path
           inkscape:connector-curvature="0"
           d="m 508.45102,672.24788 c -2.77161,-10.33018 -8.83219,-18.1957 -18.18945,-23.59811 -9.35295,-5.39994 -19.19374,-6.71795 -29.52483,-3.94974 -10.3277,2.7673 -18.19321,8.82788 -23.59563,18.18514 -3.51045,6.08028 -5.25064,12.59986 -5.21502,19.55907 0.0356,6.9592 1.77953,13.38606 5.24067,19.27998 -3.51045,6.08028 -7.09595,11.14691 -10.75492,15.1922 -3.66327,4.0428 -7.64314,7.16215 -11.94947,9.35525 -4.31063,2.1906 -8.39512,3.80556 -12.27228,4.84262 -3.87501,1.0383 -8.65897,1.35375 -14.35006,0.95312 -5.69324,-0.40188 -10.8618,-0.97164 -15.50727,-1.70158 -4.64298,-0.73425 -10.75655,-1.96443 -18.33514,-3.69022 -13.79009,-3.12447 -24.71729,-4.99221 -32.78872,-5.59587 l 50.33471,-87.18228 c 6.83271,0.0492 13.27263,-1.65268 19.31729,-5.10143 6.04466,-3.44876 10.82284,-8.21435 14.33329,-14.29464 5.40118,-9.3551 6.72043,-19.19804 3.95098,-29.52698 -2.7673,-10.3277 -8.82788,-18.19321 -18.18514,-23.59563 -9.35726,-5.40242 -19.19804,-6.72043 -29.52914,-3.95222 -10.3277,2.7673 -18.19445,8.83003 -23.59563,18.18514 -3.51045,6.08028 -5.24849,12.6011 -5.21286,19.56031 0.0356,6.95921 1.78168,13.3873 5.24067,19.27998 l -83.0488,143.84474 c -6.83146,-0.0514 -13.27263,1.65268 -19.31604,5.09928 -6.04591,3.45091 -10.82409,8.2165 -14.33454,14.29678 -5.39993,9.35296 -6.71919,19.19589 -3.94973,29.52484 2.76945,10.32894 8.83218,18.19569 18.18729,23.59687 9.35511,5.40117 19.19929,6.71828 29.52699,3.95098 10.32769,-2.7673 18.19445,-8.83004 23.59438,-18.18299 3.51045,-6.08028 5.24849,-12.6011 5.21411,-19.56246 -0.0369,-6.95706 -1.78168,-13.38731 -5.24192,-19.27783 l 2.63409,-4.56236 c 4.65781,-8.06757 10.45928,-12.51222 17.40565,-13.3361 6.94762,-0.82603 19.25488,0.74473 36.92517,4.71137 18.69232,4.08591 33.30039,6.20133 43.8174,6.34807 34.76781,0.27353 61.95931,-16.30347 81.57019,-49.73349 6.83701,0.0517 13.27263,-1.65268 19.31729,-5.10144 6.04466,-3.44875 10.82499,-8.2131 14.33544,-14.29338 5.40333,-9.35387 6.71703,-19.19714 3.95098,-29.52699 z M 259.88528,815.9585 c -5.16555,1.3841 -10.08702,0.72447 -14.76349,-1.97549 -4.67863,-2.70121 -7.71062,-6.63351 -9.09473,-11.79906 -1.38319,-5.16215 -0.72572,-10.08486 1.97549,-14.76349 2.70121,-4.67863 6.63227,-7.70847 11.79782,-9.09257 5.16555,-1.38411 10.08701,-0.72448 14.76564,1.97673 4.67648,2.69996 7.70723,6.63442 9.09257,11.79781 1.38411,5.16555 0.72572,10.08487 -1.97549,14.7635 -2.7012,4.67863 -6.63351,7.71062 -11.79781,9.09257 z M 376.55809,613.87525 c -5.16554,1.3841 -10.08701,0.72447 -14.76349,-1.97549 -4.67863,-2.70121 -7.71062,-6.63351 -9.09472,-11.79906 -1.38195,-5.1643 -0.72572,-10.08486 1.97549,-14.76349 2.70121,-4.67863 6.63351,-7.71062 11.79781,-9.09257 5.16431,-1.38195 10.08702,-0.72448 14.76565,1.97673 4.67648,2.69997 7.70722,6.63442 9.09257,11.79782 1.38535,5.16339 0.72572,10.08486 -1.97549,14.76349 -2.70121,4.67863 -6.63351,7.71062 -11.79782,9.09257 z m 99.30154,87.27098 c -5.16215,1.3832 -10.0827,0.72697 -14.76134,-1.97424 -4.68078,-2.70245 -7.70937,-6.63567 -9.09257,-11.79782 -1.38319,-5.16215 -0.72571,-10.08486 1.97549,-14.76349 2.70121,-4.67863 6.63442,-7.70722 11.79782,-9.09257 5.16339,-1.38535 10.08271,-0.72696 14.76349,1.97549 4.67863,2.70121 7.70847,6.63227 9.09042,11.79657 1.38535,5.16339 0.72572,10.08486 -1.97549,14.76349 -2.70121,4.67863 -6.63136,7.71187 -11.79782,9.09257 z"
           id="path3"
           style="opacity:0.5;fill:#d40000" />
        <path
           inkscape:connector-curvature="0"
           d="m 130.10007,543.55397 c -10.33019,2.7716 -18.1957,8.83218 -23.59812,18.18945 -5.39993,9.35295 -6.717941,19.19373 -3.94974,29.52483 2.7673,10.3277 8.82789,18.19321 18.18515,23.59563 6.08028,3.51045 12.59986,5.25064 19.55906,5.21502 6.95921,-0.0356 13.38606,-1.77953 19.27998,-5.24068 6.08028,3.51045 11.14692,7.09595 15.19221,10.75492 4.04279,3.66328 7.16215,7.64315 9.35524,11.94947 2.19061,4.31063 3.80556,8.39513 4.84262,12.27229 1.03831,3.87501 1.35375,8.65897 0.95312,14.35005 -0.40187,5.69324 -0.97163,10.86181 -1.70157,15.50728 -0.73425,4.64298 -1.96444,10.75654 -3.69022,18.33514 -3.12447,13.79008 -4.99222,24.71728 -5.59587,32.78872 L 91.74964,680.46137 c 0.04923,-6.8327 -1.652678,-13.27263 -5.101433,-19.31729 -3.448754,-6.04466 -8.214349,-10.82283 -14.294631,-14.33329 -9.355107,-5.40117 -19.198042,-6.72043 -29.526985,-3.95098 -10.327699,2.7673 -18.193212,8.82788 -23.595629,18.18515 -5.402417,9.35726 -6.720431,19.19804 -3.952222,29.52913 2.767299,10.3277 8.830033,18.19446 18.185141,23.59563 6.080282,3.51045 12.601103,5.24849 19.56031,5.21287 6.959206,-0.0356 13.387302,-1.78168 19.27998,-5.24067 l 143.844749,83.04879 c -0.0514,6.83146 1.65267,13.27263 5.09928,19.31605 3.4509,6.0459 8.2165,10.82408 14.29678,14.33453 9.35295,5.39994 19.19589,6.71919 29.52483,3.94974 10.32894,-2.76945 18.1957,-8.83219 23.59687,-18.18729 5.40118,-9.35511 6.71828,-19.19929 3.95098,-29.52699 -2.7673,-10.3277 -8.83003,-18.19445 -18.18298,-23.59438 -6.08029,-3.51046 -12.60111,-5.24849 -19.56247,-5.21412 -6.95705,0.0369 -13.3873,1.78169 -19.27782,5.24192 l -4.56237,-2.63408 c -8.06757,-4.65781 -12.51222,-10.45928 -13.3361,-17.40566 -0.82603,-6.94761 0.74473,-19.25487 4.71138,-36.92516 4.08591,-18.69232 6.20132,-33.30039 6.34806,-43.81741 0.27354,-34.76781 -16.30346,-61.9593 -49.73349,-81.57018 0.0517,-6.83701 -1.65268,-13.27263 -5.10143,-19.31729 -3.44876,-6.04466 -8.21311,-10.82499 -14.29339,-14.33544 -9.35386,-5.40333 -19.19713,-6.71704 -29.52698,-3.95098 z m 143.71061,248.56574 c 1.38411,5.16554 0.72448,10.08701 -1.97549,14.76349 -2.70121,4.67863 -6.63351,7.71062 -11.79906,9.09472 -5.16215,1.3832 -10.08486,0.72572 -14.76349,-1.97549 -4.67863,-2.7012 -7.70846,-6.63226 -9.09257,-11.79781 -1.3841,-5.16555 -0.72447,-10.08702 1.97673,-14.76565 2.69997,-4.67647 6.63442,-7.70722 11.79782,-9.09257 5.16555,-1.3841 10.08486,-0.72572 14.76349,1.97549 4.67863,2.70121 7.71062,6.63351 9.09257,11.79782 z M 71.72743,675.44689 c 1.384105,5.16555 0.724476,10.08702 -1.975489,14.76349 -2.701209,4.67863 -6.63351,7.71062 -11.799058,9.09473 -5.164305,1.38195 -10.084862,0.72572 -14.763493,-1.97549 -4.67863,-2.70121 -7.710619,-6.63351 -9.09257,-11.79782 -1.381952,-5.1643 -0.724476,-10.08701 1.976732,-14.76564 2.699966,-4.67648 6.63442,-7.70722 11.797815,-9.09257 5.163395,-1.38535 10.084862,-0.72572 14.763493,1.97549 4.67863,2.70121 7.710619,6.63351 9.09257,11.79781 z m 87.27099,-99.30154 c 1.38319,5.16215 0.72696,10.08271 -1.97425,14.76134 -2.70245,4.68079 -6.63566,7.70938 -11.79781,9.09257 -5.16215,1.3832 -10.08486,0.72572 -14.76349,-1.97549 -4.67863,-2.70121 -7.70723,-6.63442 -9.09258,-11.79781 -1.38534,-5.1634 -0.72696,-10.08271 1.97549,-14.76349 2.70121,-4.67863 6.63227,-7.70847 11.79658,-9.09042 5.16339,-1.38535 10.08486,-0.72572 14.76349,1.97549 4.67863,2.70121 7.71186,6.63135 9.09257,11.79781 z"
           id="path3352"
           style="opacity:0.5;fill:#00aad4" />
      </g>
    </g>
  </g>
</svg>
